<svg width="38" height="38" viewBox="0 0 38 38" fill="none" xmlns="http://www.w3.org/2000/svg">
<path d="M5.1655 2.88101L17.8174 3.00802C21.3473 2.95313 23.555 2.34803 25.7992 0.994442C27.0063 0.266343 28.6401 0.353612 29.7244 1.43974C30.9662 2.68358 31.1277 4.67939 29.8374 5.97181C28.5471 7.26422 0.0194823 35.8385 0.019396 35.8386C0.0193934 35.8386 0.0193946 35.8386 0.019392 35.8386C-0.00646596 35.8645 -0.00646293 35.9065 0.0193947 35.9324L2.06427 37.9806C2.09013 38.0065 2.13206 38.0065 2.15792 37.9806L31.9759 8.11382C34.6003 5.48514 38.8124 9.08361 36.9308 12.1679C35.5224 14.4766 34.8761 16.7648 34.8779 20.5804L35.0547 32.8262C35.0553 32.8621 35.0842 32.8911 35.12 32.8916L37.8678 32.9314C37.9053 32.9319 37.9357 32.9013 37.935 32.8638L38 0.0650126C37.9993 0.0293646 37.9706 0.000654653 37.935 1.10422e-05L5.12767 1.10422e-05C5.09026 -0.00066526 5.05972 0.0298123 5.06026 0.067288L5.09995 2.81565C5.10047 2.85164 5.12957 2.88065 5.1655 2.88101Z" fill="url(#paint0_radial_964_248)"/>
<defs>
<radialGradient id="paint0_radial_964_248" cx="0" cy="0" r="1" gradientUnits="userSpaceOnUse" gradientTransform="translate(3.5 37) rotate(-49.1276) scale(68.7677 44.6994)">
<stop stop-color="#724CE8"/>
<stop offset="0.332583" stop-color="#26F4D0"/>
<stop offset="0.634676" stop-color="#F8CF3E"/>
<stop offset="1" stop-color="#FC6756"/>
</radialGradient>
</defs>
</svg>
