<svg width="18" height="13" viewBox="0 0 18 13" fill="none" xmlns="http://www.w3.org/2000/svg">
<path d="M6.29992 10.5776L7.33333 10.5776L7.86487 10.5934C8.47044 10.6113 8.97323 10.1638 9.01948 9.55975C9.09171 8.61622 9.23643 7.57331 9.97539 6.84158L16.5113 0.10959C16.5698 0.049389 16.6662 0.0488378 16.7254 0.108367L17.8951 1.286C17.9532 1.34444 17.9533 1.43875 17.8953 1.49727L6.85545 12.6436C6.79723 12.7024 6.70241 12.7029 6.64352 12.6448L0.10712 6.19448C0.048017 6.13616 0.047542 6.04091 0.10606 5.982L1.27619 4.80401C1.33472 4.74509 1.42998 4.74494 1.48869 4.80367L3.63998 6.95565C4.24246 7.56881 4.36408 8.61262 4.44735 9.56634C4.49811 10.1477 4.98183 10.5776 5.56536 10.5776L6.29992 10.5776Z" fill="#EFEFE5"/>
</svg>
