<svg width="156" height="40" viewBox="0 0 156 40" fill="none" xmlns="http://www.w3.org/2000/svg">
<g opacity="0.35">
<mask id="path-1-inside-1_908_1836" fill="white">
<path fill-rule="evenodd" clip-rule="evenodd" d="M155 6.80001V32.3708C155 32.6363 154.894 32.8908 154.707 33.0784L149.07 38.7076C148.883 38.8948 148.629 39 148.364 39H2C1.44772 39 1 38.5523 1 38V33.2V18.5C1 18.2239 0.776142 18 0.5 18C0.223858 18 0 18.2239 0 18.5V33.2V38C0 39.1046 0.895435 40 2 40H148.364C148.894 40 149.402 39.7896 149.777 39.4151L155.413 33.7859C155.789 33.4108 156 32.9017 156 32.3708V6.80001V2C156 0.895431 155.105 0 154 0L7.6362 7.58707e-06C7.1062 7.61417e-06 6.59788 0.210378 6.22288 0.58491L0.586671 6.21407C0.489081 6.31154 0.4026 6.41805 0.328042 6.53163C0.187087 6.74637 0.36641 7 0.623276 7C0.831335 7 1 7.16867 1 7.37672V7.62917C1 7.36373 1.10553 7.10919 1.29334 6.92162L6.92954 1.29246C7.11704 1.10519 7.3712 1.00001 7.6362 1.00001L154 1C154.552 1 155 1.44772 155 2V6.80001Z"/>
</mask>
<path d="M154.707 33.0784L155.413 33.7859V33.7859L154.707 33.0784ZM149.07 38.7076L149.777 39.4151V39.4151L149.07 38.7076ZM149.777 39.4151L149.07 38.7076V38.7076L149.777 39.4151ZM155.413 33.7859L156.12 34.4935V34.4935L155.413 33.7859ZM154 0V-1V0ZM7.6362 7.58707e-06V1.00001V7.58707e-06ZM6.22288 0.58491L6.92954 1.29246V1.29246L6.22288 0.58491ZM0.586671 6.21407L1.29334 6.92162L1.29334 6.92162L0.586671 6.21407ZM1.29334 6.92162L0.586671 6.21407H0.586671L1.29334 6.92162ZM6.92954 1.29246L7.63621 2.00001V2.00001L6.92954 1.29246ZM7.6362 1.00001V2.00001V1.00001ZM154 1V1.19209e-07V1ZM0.328042 6.53163L-0.507943 5.98288L0.328042 6.53163ZM156 32.3708V6.80001H154V32.3708H156ZM155.413 33.7859C155.789 33.4108 156 32.9017 156 32.3708H154L155.413 33.7859ZM149.777 39.4151L155.413 33.7859L154 32.3708L148.364 38L149.777 39.4151ZM148.364 40C148.894 40 149.402 39.7896 149.777 39.4151L148.364 38V38V40ZM2 40H148.364V38H2V40ZM0 38C0 39.1046 0.895434 40 2 40V38H2H0ZM0 33.2V38H2V33.2H0ZM0 18.5V33.2H2V18.5H0ZM-1 18.5V33.2H1V18.5H-1ZM-1 33.2V38H1V33.2H-1ZM-1 38C-1 39.6569 0.343153 41 2 41V39C1.44772 39 1 38.5523 1 38H-1ZM2 41H148.364V39H2V41ZM148.364 41C149.159 41 149.921 40.6845 150.484 40.1227L149.07 38.7076C148.883 38.8948 148.629 39 148.364 39V41ZM150.484 40.1227L156.12 34.4935L154.707 33.0784L149.07 38.7076L150.484 40.1227ZM156.12 34.4935C156.683 33.9308 157 33.1672 157 32.3708H155C155 32.6363 154.894 32.8908 154.707 33.0784L156.12 34.4935ZM157 32.3708V6.80001H155V32.3708H157ZM157 6.80001V2H155V6.80001H157ZM157 2C157 0.343146 155.657 -1 154 -1V1C154.552 1 155 1.44772 155 2H157ZM154 -1L7.6362 -0.999992V1.00001L154 1V-1ZM7.6362 -0.999992C6.8412 -0.999992 6.07871 -0.684437 5.51621 -0.122639L6.92954 1.29246C7.11704 1.10519 7.3712 1.00001 7.6362 1.00001V-0.999992ZM5.51621 -0.122639L-0.119993 5.50652L1.29334 6.92162L6.92954 1.29246L5.51621 -0.122639ZM-0.119993 5.50652C-0.266337 5.65268 -0.39608 5.81246 -0.507943 5.98288L1.16403 7.08038C1.20128 7.02363 1.2445 6.97039 1.29334 6.92162L-0.119993 5.50652ZM0 7.37672V7.62917H2V7.37672H0ZM0.586671 6.21407C0.211057 6.58921 0 7.0983 0 7.62917H2V7.62917L0.586671 6.21407ZM6.22288 0.58491L0.586671 6.21407L2 7.62917L7.63621 2.00001L6.22288 0.58491ZM7.6362 7.62939e-06C7.1062 7.62939e-06 6.59788 0.210378 6.22288 0.58491L7.63621 2.00001L7.6362 2.00001V7.62939e-06ZM154 1.19209e-07L7.6362 7.62939e-06V2.00001L154 2V1.19209e-07ZM156 2C156 0.89543 155.105 1.19209e-07 154 1.19209e-07V2V2H156ZM156 6.80001V2H154V6.80001H156ZM0.623276 8C0.27905 8 0 7.72095 0 7.37672H2C2 6.61638 1.38362 6 0.623276 6V8ZM0.5 17C-0.328427 17 -1 17.6716 -1 18.5H1C1 18.7761 0.776142 19 0.5 19V17ZM-0.507943 5.98288C-0.813009 6.44762 -0.771263 6.99685 -0.509178 7.3956C-0.26202 7.77163 0.16353 8 0.623276 8V6C0.826156 6 1.03361 6.10155 1.16213 6.29708C1.30558 6.51533 1.32814 6.83037 1.16403 7.08038L-0.507943 5.98288ZM2 18.5C2 17.6716 1.32843 17 0.5 17V19C0.223858 19 0 18.7761 0 18.5H2Z" fill="#EFEFE5" mask="url(#path-1-inside-1_908_1836)"/>
</g>
</svg>
