<svg width="28" height="28" viewBox="0 0 28 28" fill="none" xmlns="http://www.w3.org/2000/svg">
<path opacity="0.3" d="M12.8762 1.02833C12.8762 0.460401 13.3531 0 13.9413 0H14.0382C14.6264 0 15.1032 0.460401 15.1032 1.02834V10.8214C15.1032 11.0939 15.1569 11.3641 15.2617 11.6167C15.3665 11.8693 15.5204 12.0999 15.7156 12.2948C15.9108 12.4898 16.1435 12.6454 16.4009 12.7519C16.6582 12.8584 16.9347 12.9134 17.2143 12.9134H26.9349C27.5232 12.9134 28 13.3738 28 13.9417V14.0929C28 14.6608 27.5232 15.1212 26.9349 15.1212H17.2143C16.6488 15.1212 16.1101 15.3457 15.7156 15.7398C15.3217 16.1332 15.1032 16.6635 15.1032 17.2132V26.9717C15.1032 27.5396 14.6264 28 14.0382 28H13.9413C13.3531 28 12.8762 27.5396 12.8762 26.9717V17.2132C12.8762 16.6635 12.6578 16.1332 12.2638 15.7398C11.8693 15.3457 11.3306 15.1212 10.7651 15.1212H1.06506C0.476844 15.1212 0 14.6608 0 14.0929V13.9421C0 13.3742 0.476846 12.9138 1.06506 12.9138H10.7651C11.3306 12.9138 11.8693 12.6893 12.2638 12.2952C12.6578 11.9018 12.8762 11.3715 12.8762 10.8218V1.02833Z" fill="#EFEFE5"/>
</svg>
