<svg width="234" height="62" viewBox="0 0 234 62" fill="none" xmlns="http://www.w3.org/2000/svg">
<g clip-path="url(#clip0_1337_2)">
<path d="M1 47V56.1716C1 56.702 1.21071 57.2107 1.58579 57.5858L4.41421 60.4142C4.78929 60.7893 5.29799 61 5.82843 61H15" stroke="#EFEFE5"/>
<path d="M233 47V56.1716C233 56.702 232.789 57.2107 232.414 57.5858L229.586 60.4142C229.211 60.7893 228.702 61 228.172 61H219" stroke="#EFEFE5"/>
<path d="M1 15V5.82843C1 5.29799 1.21071 4.78929 1.58579 4.41421L4.41421 1.58579C4.78929 1.21071 5.29799 1 5.82843 1H15" stroke="#EFEFE5"/>
<path d="M233 15V5.41421C233 5.149 232.895 4.89464 232.707 4.70711L229.293 1.29289C229.105 1.10536 228.851 1 228.586 1H219" stroke="#EFEFE5"/>
</g>
<defs>
<clipPath id="clip0_1337_2">
<rect width="234" height="62" fill="white"/>
</clipPath>
</defs>
</svg>
