<svg width="12" height="12" viewBox="0 0 12 12" fill="none" xmlns="http://www.w3.org/2000/svg">
<path opacity="0.6" d="M1.63121 0.909916L5.62654 0.950025C6.74124 0.93269 7.43843 0.741604 8.1471 0.314156C8.5283 0.0842304 9.04424 0.111789 9.38667 0.454776C9.77881 0.847568 9.82979 1.47782 9.42233 1.88596C9.01486 2.29409 0.00612505 11.3176 0.00612505 11.3176C-0.00204188 11.3257 -0.00204135 11.339 0.00612463 11.3472L0.651874 11.994C0.66004 12.0022 0.673281 12.0022 0.681447 11.994L10.0976 2.56238C10.9264 1.73227 12.2565 2.86863 11.6624 3.8426C11.2176 4.57167 11.0135 5.29428 11.0141 6.49919L11.0699 10.3663C11.0701 10.3776 11.0792 10.3868 11.0905 10.3869L11.9583 10.3995C11.9701 10.3997 11.9797 10.39 11.9795 10.3782L12 0.0206524C11.9998 0.00939511 11.9907 0.000328803 11.9795 0.000125557L1.61926 0.000125557C1.60745 -8.80118e-05 1.59781 0.00953649 1.59798 0.0213709L1.61051 0.889273C1.61068 0.900641 1.61986 0.909802 1.63121 0.909916Z" fill="#EFEFE5"/>
</svg>
