<svg width="300" height="70" viewBox="0 0 300 70" fill="none" xmlns="http://www.w3.org/2000/svg">
<g opacity="0.6">
<mask id="path-1-inside-1_886_2445" fill="white">
<path d="M0 12.7332C0 12.2 0.212965 11.6888 0.59158 11.3132L11.4129 0.580029C11.7875 0.208488 12.2937 1.3245e-05 12.8213 1.32205e-05L298 0C299.105 -5.12065e-08 300 0.895431 300 2V11.9V57.2668C300 57.8 299.787 58.3112 299.408 58.6868L288.587 69.42C288.212 69.7915 287.706 70 287.179 70H2.00001C0.895439 70 0 69.1046 0 68V58.1V12.7332Z"/>
</mask>
<path d="M288.587 69.42L287.883 68.71L288.587 69.42ZM11.4129 0.580029L12.1171 1.29002L11.4129 0.580029ZM299.408 58.6868L298.704 57.9768L299.408 58.6868ZM298 0V-1V0ZM0.59158 11.3132L-0.11263 10.6033L0.59158 11.3132ZM299 11.9V57.2668H301V11.9H299ZM1.29579 12.0232L12.1171 1.29002L10.7087 -0.129962L-0.11263 10.6033L1.29579 12.0232ZM1 58.1V12.7332H-1V58.1H1ZM12.8213 1.00001L298 1V-1L12.8213 -0.999987V1.00001ZM299 2V11.9H301V2H299ZM298.704 57.9768L287.883 68.71L289.291 70.13L300.113 59.3968L298.704 57.9768ZM287.179 69H2.00001V71H287.179V69ZM1 68V58.1H-1V68H1ZM2.00001 69C1.44772 69 1 68.5523 1 68H-1C-1 69.6569 0.34316 71 2.00001 71V69ZM287.883 68.71C287.696 68.8958 287.442 69 287.179 69V71C287.97 71 288.729 70.6873 289.291 70.13L287.883 68.71ZM12.1171 1.29002C12.3044 1.10425 12.5575 1.00001 12.8213 1.00001V-0.999987C12.0299 -0.999987 11.2706 -0.687274 10.7087 -0.129962L12.1171 1.29002ZM299 57.2668C299 57.5334 298.894 57.789 298.704 57.9768L300.113 59.3968C300.681 58.8335 301 58.0667 301 57.2668H299ZM298 1C298.552 1 299 1.44772 299 2H301C301 0.34314 299.657 -1 298 -1V1ZM-0.11263 10.6033C-0.680553 11.1666 -1 11.9333 -1 12.7332H1C1 12.4666 1.10648 12.211 1.29579 12.0232L-0.11263 10.6033Z" fill="#EFEFE5" mask="url(#path-1-inside-1_886_2445)"/>
</g>
</svg>
