<svg width="252" height="252" viewBox="0 0 252 252" fill="none" xmlns="http://www.w3.org/2000/svg">
<path d="M1 46.3109C1 45.5341 1.31004 44.7886 1.86293 44.236L44.2394 1.87784C44.8014 1.31615 45.5677 1 46.3674 1H205.633C206.432 1 207.199 1.31615 207.761 1.87784L250.137 44.236C250.69 44.7886 251 45.5341 251 46.3109V73.1412C251 74.7276 249.697 76.0135 248.091 76.0135L200.906 76.0137C199.299 76.0137 197.997 77.2997 197.997 78.886V157.041C197.997 158.627 199.299 159.913 200.906 159.913H248.091C249.697 159.913 251 161.199 251 162.785V205.581C251 206.358 250.69 207.103 250.137 207.656L207.761 250.014C207.199 250.576 206.432 250.892 205.633 250.892H46.3674C45.5677 250.892 44.8014 250.576 44.2394 250.014L1.86293 207.656C1.31004 207.103 1 206.358 1 205.581V46.3109Z" fill="#09090E"/>
<path d="M1 125.615V46.3109C1 45.5341 1.31004 44.7886 1.86293 44.236L44.2394 1.87784C44.8014 1.31615 45.5677 1 46.3674 1H205.633C206.432 1 207.199 1.31615 207.761 1.87784L250.137 44.236C250.69 44.7886 251 45.5341 251 46.3109V73.1412C251 74.7276 249.697 76.0135 248.09 76.0135L200.906 76.0137C199.299 76.0137 197.997 77.2997 197.997 78.886V126.054" stroke="url(#paint0_linear_2306_6526)"/>
<path d="M125.367 251H205.633C206.432 251 207.199 250.684 207.761 250.122L250.137 207.764C250.69 207.211 251 206.466 251 205.689V162.866C251 161.279 249.697 159.993 248.091 159.993L200.906 159.993C199.299 159.993 197.997 158.707 197.997 157.121V125.946" stroke="url(#paint1_radial_2306_6526)"/>
<path d="M125.633 251H46.3674C45.5677 251 44.8014 250.684 44.2394 250.122L1.86293 207.764C1.31004 207.211 1 206.466 1 205.689V125.385" stroke="url(#paint2_linear_2306_6526)"/>
<defs>
<linearGradient id="paint0_linear_2306_6526" x1="244" y1="65.472" x2="-61.4968" y2="99.4864" gradientUnits="userSpaceOnUse">
<stop stop-color="#8026F2"/>
<stop offset="0.814558" stop-color="#26F4D0"/>
</linearGradient>
<radialGradient id="paint1_radial_2306_6526" cx="0" cy="0" r="1" gradientUnits="userSpaceOnUse" gradientTransform="translate(127 250.892) rotate(-60.3928) scale(143.71 457.315)">
<stop stop-color="#F8CF3E"/>
<stop offset="0.623005" stop-color="#FC6756"/>
<stop offset="1" stop-color="#724CE8"/>
</radialGradient>
<linearGradient id="paint2_linear_2306_6526" x1="-1.50001" y1="125.946" x2="61.282" y2="207.099" gradientUnits="userSpaceOnUse">
<stop stop-color="#26F4D0"/>
<stop offset="0.994152" stop-color="#F8CF3E"/>
</linearGradient>
</defs>
</svg>
