<svg width="14" height="12" viewBox="0 0 14 12" fill="none" xmlns="http://www.w3.org/2000/svg">
<path d="M8.8237 1.07812C9.74245 1.23678 10.6354 1.53322 11.4549 1.9092C12.9067 4.04472 13.6405 6.46897 13.3724 9.24219C12.2728 10.0498 11.1908 10.5696 10.1403 10.8946C9.89759 10.5568 9.63204 10.1855 9.43898 9.81151C9.42782 9.78959 9.43796 9.76306 9.46076 9.75438C9.81093 9.62225 10.0993 9.49489 10.4196 9.30768C10.3571 9.1931 10.3519 9.18789 10.305 9.10455C8.22578 10.0652 5.79643 9.98277 3.69238 9.02214C3.6403 9.10547 3.5778 9.19401 3.52814 9.27688C3.84841 9.46053 4.18136 9.62225 4.53102 9.75489C4.55382 9.76357 4.56446 9.78959 4.55331 9.81151C4.3643 10.186 4.09875 10.5569 3.85145 10.8946C2.80602 10.5696 1.72408 10.0493 0.624419 9.24168C0.400431 6.84293 0.85702 4.41407 2.52376 1.924C3.34369 1.5475 4.23963 1.25533 5.15787 1.09718C5.27139 1.29818 5.44318 1.57608 5.53086 1.78676C6.49877 1.63882 7.48187 1.63882 8.47005 1.78676C8.55771 1.58066 8.71069 1.27912 8.8237 1.07812Z" stroke="#EFEFE5" stroke-miterlimit="16"/>
<path d="M5.99935 6.16178C5.99935 5.51745 5.47702 4.99512 4.83268 4.99512C4.18835 4.99512 3.66602 5.51745 3.66602 6.16178C3.66602 6.80612 4.18835 7.32845 4.83268 7.32845C5.47702 7.32845 5.99935 6.80612 5.99935 6.16178Z" fill="#EFEFE5"/>
<path d="M10.3327 6.16178C10.3327 5.51745 9.81035 4.99512 9.16602 4.99512C8.52168 4.99512 7.99935 5.51745 7.99935 6.16178C7.99935 6.80612 8.52168 7.32845 9.16602 7.32845C9.81035 7.32845 10.3327 6.80612 10.3327 6.16178Z" fill="#EFEFE5"/>
</svg>
