<svg width="10" height="14" viewBox="0 0 10 14" fill="none" xmlns="http://www.w3.org/2000/svg">
<path d="M5.86642 10.5384V0.717773H6.99588C7.04239 1.41419 7.40338 2.18917 7.89822 2.82857C8.39726 3.47339 9.05594 4.01049 9.71551 4.18964L9.7141 4.27156C9.71211 4.39376 9.70972 4.55784 9.70813 4.72517C9.70654 4.89232 9.70574 5.06342 9.70694 5.19941L9.70781 5.27032C9.35258 5.19375 8.904 5.08473 8.47435 4.94619C7.95724 4.77946 7.49211 4.57738 7.24083 4.35246L6.99079 4.12865V10.5384C6.99079 12.4222 5.46365 13.9494 3.57987 13.9494C1.69607 13.9494 0.168945 12.4222 0.168945 10.5384C0.168945 9.60995 0.658685 8.75869 1.39809 8.13515C2.0986 7.5444 3.01151 7.16877 3.9088 7.13072V8.25658C3.32435 8.29284 2.7048 8.53638 2.21754 8.90842C1.68933 9.31173 1.29331 9.88526 1.29331 10.5384C1.29331 11.8013 2.31704 12.825 3.57987 12.825C4.84273 12.825 5.86642 11.8013 5.86642 10.5384Z" fill="#EFEFE5"/>
</svg>
