<svg width="14" height="14" viewBox="0 0 14 14" fill="none" xmlns="http://www.w3.org/2000/svg">
<path fill-rule="evenodd" clip-rule="evenodd" d="M11.1526 11.2284L11.5202 11.5873L11.4425 11.6663C11.3444 11.7658 11.2378 11.8732 11.1942 11.9144C9.97264 13.0711 8.38818 13.7073 6.71265 13.7073C3.07684 13.7073 0.111816 10.6937 0.111816 7.00011C0.111816 3.29347 3.07665 0.292969 6.71265 0.292969C10.3354 0.292969 13.3003 3.2938 13.3135 6.97406L13.3133 7.00011L13.3137 7.0077C13.3645 8.01161 12.9722 8.83362 12.2534 9.30541C11.6702 9.66448 10.9728 9.69614 10.4289 9.38186L10.4271 9.38086C9.82274 9.0424 9.45401 8.33087 9.45401 7.41207V5.74761L9.19795 6.00368C9.15929 6.04234 9.12889 6.08705 9.10438 6.12556C9.09273 6.14385 9.08308 6.1596 9.07391 6.17455C9.06074 6.19601 9.04851 6.21577 9.03295 6.23911L7.44917 8.80776C7.18637 9.22421 6.94313 9.43243 6.74089 9.52928C6.54195 9.62454 6.37059 9.61793 6.23482 9.57992C6.10061 9.54234 5.95037 9.45676 5.83101 9.2686C5.70978 9.07748 5.61348 8.76936 5.61348 8.27586V5.61228L2.3933 10.7764L2.46736 10.8602C3.50432 12.0336 5.00633 12.7714 6.68607 12.7714C8.12009 12.7714 9.51245 12.2117 10.5501 11.2286L10.5633 11.2154L10.8558 10.9532L11.1526 11.2284ZM6.71265 1.24214C3.58476 1.24214 1.03441 3.82279 1.03441 7.00011C1.03441 7.94167 1.26637 8.86919 1.70274 9.70102L1.82427 9.93268L5.16448 4.58281C5.34478 4.30973 5.51863 4.17802 5.66415 4.11927C5.80877 4.06089 5.93934 4.06891 6.04496 4.1006C6.20444 4.14844 6.32633 4.24754 6.41306 4.40725C6.50205 4.5711 6.55614 4.80343 6.56265 5.11463V8.46717L8.27512 5.72407L8.27609 5.72248C8.38955 5.53559 8.58957 5.20996 8.85532 4.95984C9.1221 4.70875 9.42363 4.56166 9.75326 4.65893L9.75556 4.65959C10.1369 4.76552 10.4032 5.19306 10.4032 5.88383V7.38549C10.4032 7.90179 10.5705 8.3257 10.9012 8.52413L10.9049 8.5262C11.1765 8.67897 11.5146 8.63713 11.7876 8.47033L11.7904 8.46848C12.2239 8.18983 12.4179 7.64913 12.3909 7.02341V7.00011C12.3909 3.82279 9.84054 1.24214 6.71265 1.24214Z" fill="#EFEFE5"/>
</svg>
