<svg width="12" height="12" viewBox="0 0 12 12" fill="none" xmlns="http://www.w3.org/2000/svg">
<path d="M8.48372 3.00039C8.48372 2.71504 8.71504 2.48372 9.00039 2.48372C9.28575 2.48372 9.51706 2.71504 9.51706 3.00039C9.51706 3.28574 9.28575 3.51706 9.00039 3.51706C8.71504 3.51706 8.48372 3.28574 8.48372 3.00039Z" fill="#EFEFE5"/>
<path fill-rule="evenodd" clip-rule="evenodd" d="M3.48372 6.00039C3.48372 4.61047 4.61047 3.48372 6.00039 3.48372C7.39028 3.48372 8.51706 4.61047 8.51706 6.00039C8.51706 7.39028 7.39028 8.51706 6.00039 8.51706C4.61047 8.51706 3.48372 7.39028 3.48372 6.00039ZM6.00039 4.51706C5.18115 4.51706 4.51706 5.18115 4.51706 6.00039C4.51706 6.81963 5.18115 7.48372 6.00039 7.48372C6.81963 7.48372 7.48372 6.81963 7.48372 6.00039C7.48372 5.18115 6.81963 4.51706 6.00039 4.51706Z" fill="#EFEFE5"/>
<path fill-rule="evenodd" clip-rule="evenodd" d="M0.150391 3.33372C0.150391 1.57562 1.57562 0.150391 3.33372 0.150391H8.66706C10.4251 0.150391 11.8504 1.57562 11.8504 3.33372V8.66706C11.8504 10.4251 10.4251 11.8504 8.66706 11.8504H3.33372C1.57562 11.8504 0.150391 10.4251 0.150391 8.66706V3.33372ZM3.33372 1.18372C2.14631 1.18372 1.18372 2.14631 1.18372 3.33372V8.66706C1.18372 9.8545 2.14632 10.8171 3.33372 10.8171H8.66706C9.8545 10.8171 10.8171 9.8545 10.8171 8.66706V3.33372C10.8171 2.14632 9.8545 1.18372 8.66706 1.18372H3.33372Z" fill="#EFEFE5"/>
</svg>
