<svg width="13" height="12" viewBox="0 0 13 12" fill="none" xmlns="http://www.w3.org/2000/svg">
<path fill-rule="evenodd" clip-rule="evenodd" d="M7.76071 0.567323C9.04647 0.30907 10.0166 0.774425 10.5764 1.33633L10.6117 1.37178L10.6612 1.37893C11.5958 1.51377 11.6863 1.52417 12.5065 1.60311C12.478 1.66054 12.4451 1.7267 12.4104 1.79598C12.3055 2.00541 12.187 2.238 12.1252 2.34662L11.2814 3.97285L11.2829 4.01229C11.3862 6.88642 10.5888 8.86447 8.91205 10.2252C8.02927 10.9415 6.75403 11.356 5.33612 11.4842C4.57765 11.5529 3.59132 11.4593 2.64574 11.2526C1.80281 11.0683 1.00674 10.7974 0.441964 10.482C0.9172 10.1675 1.25024 9.9886 1.56154 9.83003C1.61624 9.80217 1.67048 9.77484 1.72484 9.74744C2.02224 9.59757 2.32374 9.44563 2.7283 9.19315L2.94901 9.05541L2.71922 8.93341C1.94197 8.52075 1.37233 7.9832 0.969789 7.37242C0.409714 6.52258 0.199649 5.57147 0.157881 4.70587C0.0926821 3.35462 0.325425 2.27539 1.08356 1.22317C1.13552 1.27128 1.19951 1.33119 1.26641 1.3954C1.4327 1.555 1.60007 1.72537 1.65936 1.81212L1.67066 1.82866L1.6859 1.84164C2.39953 2.44991 2.92839 2.85887 3.44797 3.13157C3.97231 3.40678 4.48084 3.54009 5.15013 3.60964L5.29774 3.62498L5.31466 3.47754C5.37731 2.93136 5.52401 2.39859 5.79536 1.93325C6.1911 1.2544 6.83343 0.753569 7.76071 0.567323ZM10.001 2.25153C9.73498 1.86855 9.04796 1.36274 7.96416 1.58042C7.32759 1.7083 6.93557 2.02911 6.68805 2.45372C6.42905 2.8979 6.3105 3.4893 6.3105 4.15853L6.31025 4.67517H5.79384C4.24894 4.67517 2.78846 4.21781 1.55808 2.98316L1.35505 2.77944L1.30419 3.06252C1.22085 3.52641 1.16222 4.07998 1.19002 4.65606C1.22582 5.39803 1.40363 6.15291 1.8326 6.80378C2.24779 7.43375 2.91216 8.15773 4.06387 8.52281C4.16337 8.55435 4.41063 8.62632 4.63046 8.6897L4.78423 8.73392C4.42181 9.0447 4.05159 9.31866 3.67269 9.59904C3.46192 9.755 3.24847 9.91296 3.03217 10.0803L2.77503 10.2793L3.09331 10.3458C3.79352 10.492 4.59941 10.5133 5.24301 10.4551C6.54029 10.3378 7.59222 9.96538 8.26089 9.42277C9.64972 8.29575 10.3781 6.62089 10.2425 3.86923C10.2337 3.69223 10.3155 3.4927 10.444 3.27484C10.5067 3.1686 10.5765 3.06416 10.646 2.96039L10.647 2.95889C10.7155 2.85648 10.7847 2.75308 10.8399 2.65604L10.9998 2.375L10.6819 2.43443C10.3812 2.49065 10.1505 2.46677 10.001 2.25153Z" fill="#EFEFE5"/>
</svg>
