<svg width="14" height="8" viewBox="0 0 14 8" fill="none" xmlns="http://www.w3.org/2000/svg">
<path fill-rule="evenodd" clip-rule="evenodd" d="M0.483398 3.99746C0.483398 1.87116 2.2071 0.147461 4.3334 0.147461C6.45969 0.147461 8.1834 1.87116 8.1834 3.99746C8.1834 6.12375 6.45969 7.84746 4.3334 7.84746C2.2071 7.84746 0.483398 6.12375 0.483398 3.99746ZM4.3334 1.18079C2.7778 1.18079 1.51673 2.44186 1.51673 3.99746C1.51673 5.55304 2.77779 6.81413 4.3334 6.81413C5.88898 6.81413 7.15007 5.55304 7.15007 3.99746C7.15007 2.44186 5.88897 1.18079 4.3334 1.18079Z" fill="#EFEFE5"/>
<path fill-rule="evenodd" clip-rule="evenodd" d="M8.81673 3.99746C8.81673 3.09264 8.98092 2.28314 9.26011 1.70573C9.54178 1.12319 9.91888 0.814127 10.3334 0.814127C10.7479 0.814127 11.125 1.12319 11.4067 1.70573C11.6859 2.28314 11.8501 3.09264 11.8501 3.99746C11.8501 4.90227 11.6859 5.71178 11.4067 6.28918C11.125 6.87173 10.7479 7.18079 10.3334 7.18079C9.91888 7.18079 9.54178 6.87173 9.26011 6.28918C8.98092 5.71178 8.81673 4.90227 8.81673 3.99746ZM10.499 2.20394C10.434 2.06175 10.2327 2.06179 10.1678 2.20396C9.91206 2.76574 9.85007 3.41261 9.85007 3.99746C9.85007 4.5823 9.91192 5.22903 10.1678 5.79083C10.2327 5.93304 10.4341 5.93317 10.499 5.79095C10.7547 5.22917 10.8167 4.58231 10.8167 3.99746C10.8167 3.41263 10.7548 2.76574 10.499 2.20394Z" fill="#EFEFE5"/>
<path d="M12.4834 3.99746C12.4834 3.08343 12.5576 2.3458 12.6748 1.84101C12.7336 1.58743 12.8013 1.40147 12.8703 1.28262C12.9443 1.15516 12.9932 1.14746 13.0001 1.14746C13.007 1.14746 13.0559 1.15516 13.1298 1.28262C13.1988 1.40147 13.2665 1.58743 13.3254 1.84101C13.4425 2.3458 13.5167 3.08343 13.5167 3.99746C13.5167 4.91148 13.4425 5.64911 13.3254 6.1539C13.2665 6.40749 13.1988 6.59344 13.1298 6.7123C13.0559 6.83977 13.007 6.84746 13.0001 6.84746C12.9932 6.84746 12.9443 6.83977 12.8703 6.7123C12.8013 6.59344 12.7336 6.40749 12.6748 6.1539C12.5576 5.64911 12.4834 4.91148 12.4834 3.99746Z" fill="#EFEFE5"/>
</svg>
