<svg width="16" height="16" viewBox="0 0 16 16" fill="none" xmlns="http://www.w3.org/2000/svg">
<path fill-rule="evenodd" clip-rule="evenodd" d="M2.1499 4.00137C2.1499 2.97964 2.97818 2.15137 3.9999 2.15137H11.9999C13.0217 2.15137 13.8499 2.97964 13.8499 4.00137V12.0014C13.8499 13.0231 13.0217 13.8514 11.9999 13.8514H3.9999C2.97818 13.8514 2.1499 13.0231 2.1499 12.0014V4.00137ZM3.9999 3.1847C3.54887 3.1847 3.18324 3.55034 3.18324 4.00137V12.0014C3.18324 12.4524 3.54888 12.818 3.9999 12.818H11.9999C12.4509 12.818 12.8166 12.4524 12.8166 12.0014V4.00137C12.8166 3.55034 12.4509 3.1847 11.9999 3.1847H3.9999Z" fill="#EFEFE5"/>
<path d="M6.21322 7.00387H4.89953V11.2077H6.21322V7.00387ZM6.33145 5.55882C6.33214 5.45945 6.31326 5.36091 6.27587 5.26884C6.23848 5.17677 6.18332 5.09297 6.11354 5.02221C6.04377 4.95146 5.96074 4.89514 5.86919 4.85648C5.77765 4.81782 5.67939 4.79756 5.58002 4.79688H5.55637C5.35429 4.79688 5.16049 4.87715 5.0176 5.02004C4.87471 5.16293 4.79443 5.35674 4.79443 5.55882C4.79443 5.76089 4.87471 5.9547 5.0176 6.09759C5.16049 6.24048 5.35429 6.32076 5.55637 6.32076C5.65575 6.3232 5.75464 6.30604 5.84738 6.27026C5.94012 6.23447 6.0249 6.18076 6.09688 6.1122C6.16886 6.04364 6.22662 5.96156 6.26687 5.87067C6.30712 5.77977 6.32906 5.68184 6.33145 5.58246V5.55882ZM11.2052 8.65387C11.2052 7.3901 10.4013 6.89878 9.60254 6.89878C9.34102 6.88568 9.08064 6.94139 8.84737 7.06033C8.61409 7.17927 8.41608 7.35729 8.27309 7.57664H8.2363V7.00387H7.00143V11.2077H8.31512V8.97178C8.29613 8.74279 8.36827 8.51555 8.51585 8.33943C8.66344 8.16331 8.87455 8.05254 9.10334 8.03118H9.15326C9.57101 8.03118 9.88104 8.29392 9.88104 8.95602V11.2077H11.1947L11.2052 8.65387Z" fill="#EFEFE5"/>
</svg>
