<svg width="14" height="14" viewBox="0 0 14 14" fill="none" xmlns="http://www.w3.org/2000/svg">
<path fill-rule="evenodd" clip-rule="evenodd" d="M6.67867 9.75863L5.98598 9.30669L5.79991 9.24256C5.69111 9.205 5.53321 9.15042 5.33684 9.08232C4.94411 8.94613 4.39755 8.75591 3.78231 8.5398C2.67323 8.15024 1.34196 7.67694 0.286133 7.28444C2.12054 6.43767 3.89057 5.56511 5.65653 4.69456C8.34675 3.36838 11.0277 2.04678 13.9123 0.828125C13.625 2.6306 13.3329 4.4263 13.0403 6.22485C12.6657 8.5274 12.2902 10.8354 11.9233 13.1675C10.9351 12.5297 9.51745 11.608 8.31683 10.8262C7.67613 10.409 7.09731 10.0317 6.67867 9.75863ZM11.1937 11.4701L12.6502 2.50869L2.78412 7.18808L5.97399 8.27192L9.04612 5.95507L6.98537 8.74173L11.1937 11.4701Z" fill="#EFEFE5"/>
</svg>
