<svg width="9" height="9" viewBox="0 0 9 9" fill="none" xmlns="http://www.w3.org/2000/svg">
<path opacity="0.5" d="M3.02898 8.2L4.48898 5.5L5.86898 8.16L7.30898 7.36L6.82898 6.62C6.26898 5.76 5.90898 5.42 5.20898 5L5.60898 4.26C6.24898 4.64 6.92899 4.78 7.98899 4.78H8.78898V3.22L5.64898 3.36L7.28899 0.82L5.88899 0.0199997L5.54898 0.66C5.04898 1.6 4.88898 2.16 4.88898 2.88H4.08898C4.08898 2.22 3.86898 1.64 3.36898 0.62L3.04898 0L1.66898 0.84L3.26898 3.36L0.208984 3.22V4.78H1.04898C2.00898 4.78 2.78898 4.6 3.38898 4.26L3.78898 5C3.06898 5.46 2.62898 5.8 2.08898 6.66L1.62898 7.38L3.02898 8.2Z" fill="#EFEFE5"/>
</svg>
