<svg width="16" height="15" viewBox="0 0 16 15" fill="none" xmlns="http://www.w3.org/2000/svg">
    <path d="M8.29265 0.676269L11.2625 0.706083C12.091 0.693198 12.6093 0.55116 13.1361 0.233429C13.4194 0.0625196 13.8029 0.0830044 14.0575 0.337954C14.3489 0.629925 14.3868 1.09841 14.084 1.40178C13.7811 1.70515 7.08469 8.4125 7.08469 8.4125C7.07862 8.41858 7.07862 8.42844 7.08469 8.43452L7.56469 8.9153C7.57076 8.92138 7.5806 8.92138 7.58667 8.9153L14.5859 1.90458C15.202 1.28754 16.1907 2.13223 15.749 2.8562C15.4184 3.39813 15.2667 3.93526 15.2671 4.8309L15.3087 7.70541C15.3088 7.71383 15.3156 7.72063 15.324 7.72075L15.969 7.73009C15.9778 7.73022 15.9849 7.72302 15.9847 7.71422L16 0.0152606C15.9998 0.00689285 15.9931 0.000153669 15.9847 2.59197e-06L8.28377 2.59197e-06C8.27499 -0.000156159 8.26782 0.00699795 8.26795 0.0157947L8.27727 0.660925C8.27739 0.669375 8.28422 0.676185 8.29265 0.676269Z" fill="#EFEFE5"/>
    <path fill-rule="evenodd" clip-rule="evenodd" d="M0 2.90244C0 2.1481 0.611514 1.53659 1.36585 1.53659H5.0302C5.24572 1.53659 5.42044 1.7113 5.42044 1.92683C5.42044 2.14236 5.24572 2.31707 5.0302 2.31707H1.36585C1.04257 2.31707 0.780488 2.57915 0.780488 2.90244V13.6341C0.780488 13.9574 1.04256 14.2195 1.36585 14.2195H12.0976C12.4209 14.2195 12.6829 13.9574 12.6829 13.6341V9.34526C12.6829 9.12974 12.8576 8.95502 13.0732 8.95502C13.2887 8.95502 13.4634 9.12974 13.4634 9.34526V13.6341C13.4634 14.3885 12.8519 15 12.0976 15H1.36585C0.611514 15 0 14.3885 0 13.6341V2.90244Z" fill="#EFEFE5"/>
</svg>
