<svg width="20" height="20" viewBox="0 0 20 20" fill="none" xmlns="http://www.w3.org/2000/svg">
<path d="M2.71869 1.51632L9.37756 1.58317C11.2354 1.55428 12.3974 1.2358 13.5785 0.523391C14.2138 0.140181 15.0737 0.186111 15.6444 0.757756C16.298 1.41241 16.383 2.46284 15.7039 3.14306C15.0248 3.82327 0.0102084 18.8624 0.0102084 18.8624C-0.00340314 18.876 -0.00340224 18.8981 0.0102077 18.9118L1.08646 19.9898C1.10007 20.0034 1.12213 20.0034 1.13575 19.9898L16.8294 4.27043C18.2107 2.88692 20.4276 4.78085 19.4373 6.40414C18.696 7.61924 18.3559 8.82359 18.3568 10.8318L18.4499 17.277C18.4501 17.2959 18.4654 17.3111 18.4842 17.3114L19.9304 17.3323C19.9502 17.3326 19.9662 17.3165 19.9658 17.2967L20 0.0342172C19.9996 0.0154551 19.9845 0.000344554 19.9658 5.81168e-06L2.69877 5.81167e-06C2.67908 -0.000350137 2.66301 0.0156907 2.66329 0.0354147L2.68419 1.48192C2.68446 1.50086 2.69977 1.51613 2.71869 1.51632Z" fill="#EFEFE5"/>
</svg>
