<svg width="14" height="4" viewBox="0 0 14 4" fill="none" xmlns="http://www.w3.org/2000/svg">
<path d="M0 2.13836C0 2.59543 0.150165 2.97831 0.450495 3.28699C0.750825 3.59566 1.158 3.75 1.67203 3.75C2.18028 3.75 2.58457 3.59863 2.8849 3.29589C3.19101 2.98721 3.34406 2.60137 3.34406 2.13836C3.34406 1.67534 3.19389 1.28653 2.89356 0.971918C2.59901 0.657306 2.19183 0.5 1.67203 0.5C1.14645 0.5 0.736386 0.660274 0.441832 0.980822C0.147277 1.29543 0 1.68128 0 2.13836Z" fill="#EFEFE5"/>
<path d="M10.6559 2.13836C10.6559 2.59543 10.8061 2.97831 11.1064 3.28699C11.4068 3.59566 11.8139 3.75 12.328 3.75C12.8362 3.75 13.2405 3.59863 13.5408 3.29589C13.8469 2.98721 14 2.60137 14 2.13836C14 1.67534 13.8498 1.28653 13.5495 0.971918C13.255 0.657306 12.8478 0.5 12.328 0.5C11.8024 0.5 11.3923 0.660274 11.0978 0.980822C10.8032 1.29543 10.6559 1.68128 10.6559 2.13836Z" fill="#EFEFE5"/>
</svg>
