<svg width="14" height="12" viewBox="0 0 14 12" fill="none" xmlns="http://www.w3.org/2000/svg">
<path d="M5.91683 4.38375C5.91683 4.27935 5.91683 4.10547 5.91683 4.10547L6.14963 4.25834L8.94185 5.87044C9.03075 5.92176 9.14062 5.99219 9.14062 5.99219L8.93284 6.13541L6.14183 7.74682C6.05138 7.79901 5.91683 7.87109 5.91683 7.87109V7.60792V4.38375Z" fill="#EFEFE5"/>
<path fill-rule="evenodd" clip-rule="evenodd" d="M4.62274 0.987162L5.28944 0.955288C5.85328 0.931849 6.43437 0.916992 7.00016 0.916992C7.56597 0.916992 8.14705 0.931849 8.71089 0.955288L9.37758 0.987162L10.0146 1.02478L10.0171 1.02494L10.6126 1.0659L10.6147 1.06606L11.1594 1.10812C12.2659 1.19814 13.1521 2.05374 13.2602 3.1652L13.2865 3.44599L13.3363 4.05019C13.3827 4.67493 13.4168 5.3537 13.4168 6.00033C13.4168 6.64695 13.3827 7.32668 13.3362 7.95141L13.2865 8.55503C13.2778 8.65098 13.269 8.74459 13.2602 8.83544C13.1523 9.94717 12.2656 10.8026 11.1589 10.8925L10.6147 10.9346L10.6126 10.9347L10.0171 10.9757L10.0146 10.9758L9.37756 11.0135L8.71016 11.0454C8.14631 11.0688 7.56598 11.0837 7.00016 11.0837C6.43435 11.0837 5.8533 11.0688 5.28945 11.0454L4.62276 11.0135L3.98567 10.9758L3.98326 10.9757L3.38768 10.9347L3.38558 10.9346L2.84097 10.8925C1.73444 10.8026 0.848188 9.94698 0.740113 8.83544L0.713818 8.55465L0.664016 7.95041C0.617586 7.32569 0.583496 6.64693 0.583496 6.00033C0.583496 5.35372 0.617586 4.67496 0.664016 4.05024L0.713853 3.44558C0.722508 3.34964 0.731296 3.25605 0.740113 3.1652C0.848012 2.05351 1.73474 1.19811 2.84138 1.10809L3.38663 1.06598L3.98447 1.02487L4.62274 0.987162ZM5.33327 2.03773C5.88412 2.01481 6.44992 2.00033 7.00016 2.00033C7.55039 2.00033 8.1162 2.01481 8.66705 2.03773L9.31894 2.0689L9.94476 2.10586L10.5328 2.14629L11.0713 2.18787C11.6642 2.23598 12.1256 2.68865 12.182 3.26986C12.2602 4.07558 12.3335 5.07906 12.3335 6.00033C12.3335 6.92159 12.2602 7.92506 12.182 8.73079C12.1256 9.31199 11.6642 9.76466 11.0713 9.81279L10.5328 9.85437L9.94476 9.8948L9.31894 9.93176L8.66705 9.96293C8.1162 9.98585 7.55039 10.0003 7.00016 10.0003C6.44992 10.0003 5.88412 9.98585 5.33327 9.96293L4.68138 9.93176L4.05557 9.8948L3.46754 9.85437L2.92901 9.81279C2.33614 9.76466 1.87479 9.31199 1.81838 8.73079C1.74018 7.92506 1.66683 6.92159 1.66683 6.00033C1.66683 5.07906 1.74018 4.07558 1.81838 3.26986C1.87479 2.68865 2.33614 2.23598 2.92901 2.18787L3.46754 2.14629L4.05557 2.10586L4.68138 2.0689L5.33327 2.03773Z" fill="#EFEFE5"/>
</svg>
