<svg width="168" height="40" viewBox="0 0 168 40" fill="none" xmlns="http://www.w3.org/2000/svg">
<path fill-rule="evenodd" clip-rule="evenodd" d="M165.401 1.16505L8.23154 1.16506C7.86076 1.16506 7.50513 1.30803 7.24277 1.56256L1.60976 7.02776C1.34698 7.28272 1.19932 7.6287 1.19932 7.98948V10.3884H0V7.98948C0 7.31946 0.274219 6.67692 0.762241 6.20344L6.39526 0.738233C6.88248 0.265523 7.54294 7.40718e-06 8.23154 7.34931e-06L165.401 0C166.837 0 168 1.13016 168 2.52427V32.0105C168 32.6806 167.726 33.3231 167.238 33.7966L161.605 39.2618C161.118 39.7345 160.457 40 159.768 40H2.59853C1.1634 40 0 38.8698 0 37.4757V16.7961H1.19932V37.4757C1.19932 38.2264 1.82577 38.835 2.59853 38.835H159.768C160.139 38.835 160.495 38.692 160.757 38.4374L166.39 32.9722C166.653 32.7173 166.801 32.3713 166.801 32.0105V2.52427C166.801 1.77359 166.174 1.16505 165.401 1.16505Z" fill="#EFEFE5" fill-opacity="0.3"/>
</svg>
