<svg width="145" height="40" viewBox="0 0 145 40" fill="none" xmlns="http://www.w3.org/2000/svg">
<path fill-rule="evenodd" clip-rule="evenodd" d="M142.273 1.16505L7.55561 1.16506C7.23779 1.16506 6.93297 1.30803 6.70809 1.56256L1.87979 7.02776C1.65455 7.28272 1.52799 7.6287 1.52799 7.98948V10.3884H0.5V7.98948C0.5 7.31946 0.735045 6.67692 1.15335 6.20344L5.98165 0.738233C6.39927 0.265523 6.96537 7.40718e-06 7.55561 7.34931e-06L142.273 0C143.503 0 144.5 1.13016 144.5 2.52427V32.0105C144.5 32.6806 144.265 33.3231 143.847 33.7966L139.018 39.2618C138.601 39.7345 138.035 40 137.444 40H2.72731C1.4972 40 0.5 38.8698 0.5 37.4757V16.7961H1.52799V37.4757C1.52799 38.2264 2.06494 38.835 2.72731 38.835H137.444C137.762 38.835 138.067 38.692 138.292 38.4374L143.12 32.9722C143.345 32.7173 143.472 32.3713 143.472 32.0105V2.52427C143.472 1.77359 142.935 1.16505 142.273 1.16505Z" fill="url(#paint0_angular_3295_195)"/>
<defs>
<radialGradient id="paint0_angular_3295_195" cx="0" cy="0" r="1" gradientUnits="userSpaceOnUse" gradientTransform="translate(78.5415 14.8601) rotate(-178.732) scale(118.676 60.3921)">
<stop stop-color="#724CE8"/>
<stop offset="0.332583" stop-color="#26F4D0"/>
<stop offset="0.634676" stop-color="#F8CF3E"/>
<stop offset="1" stop-color="#FC6756"/>
</radialGradient>
</defs>
</svg>
