<svg width="12" height="12" viewBox="0 0 12 12" fill="none" xmlns="http://www.w3.org/2000/svg">
<path fill-rule="evenodd" clip-rule="evenodd" d="M11.5 1.775C11.5 1.9683 11.3433 2.125 11.15 2.125H0.85C0.6567 2.125 0.5 1.9683 0.5 1.775V1.225C0.5 1.0317 0.656701 0.875 0.85 0.875H11.15C11.3433 0.875 11.5 1.0317 11.5 1.225V1.775Z" fill="#EFEFE5"/>
<path fill-rule="evenodd" clip-rule="evenodd" d="M8.5 4.775C8.5 4.9683 8.3433 5.125 8.15 5.125H0.85C0.6567 5.125 0.5 4.9683 0.5 4.775V4.225C0.5 4.0317 0.6567 3.875 0.85 3.875H8.15C8.3433 3.875 8.5 4.0317 8.5 4.225V4.775Z" fill="#EFEFE5"/>
<path fill-rule="evenodd" clip-rule="evenodd" d="M11.5 7.775C11.5 7.9683 11.3433 8.125 11.15 8.125H0.85C0.6567 8.125 0.5 7.9683 0.5 7.775V7.225C0.5 7.0317 0.656701 6.875 0.85 6.875H11.15C11.3433 6.875 11.5 7.0317 11.5 7.225V7.775Z" fill="#EFEFE5"/>
<path fill-rule="evenodd" clip-rule="evenodd" d="M7.5 10.775C7.5 10.9683 7.3433 11.125 7.15 11.125H0.85C0.6567 11.125 0.5 10.9683 0.5 10.775V10.225C0.5 10.0317 0.6567 9.875 0.85 9.875H7.15C7.3433 9.875 7.5 10.0317 7.5 10.225V10.775Z" fill="#EFEFE5"/>
</svg>
