<svg width="12" height="14" viewBox="0 0 12 14" fill="none" xmlns="http://www.w3.org/2000/svg">
<path fill-rule="evenodd" clip-rule="evenodd" d="M1.4625 0.98V13.02H7.43465L10.5375 9.86074V0.98H1.4625ZM1.23333 0H10.7667C11.1717 0 11.5 0.334294 11.5 0.746667V9.95739C11.5 10.1554 11.4227 10.3453 11.2852 10.4854L8.04812 13.7813C7.91059 13.9213 7.72407 14 7.52958 14H1.23333C0.828325 14 0.5 13.6657 0.5 13.2533V0.746667C0.5 0.334294 0.828325 0 1.23333 0Z" fill="#EFEFE5"/>
<path fill-rule="evenodd" clip-rule="evenodd" d="M7.39792 9.82333H10.8125V8.84333H7.1C6.73296 8.84333 6.43542 9.14629 6.43542 9.52V13.7667H7.39792V9.82333Z" fill="#EFEFE5"/>
<path fill-rule="evenodd" clip-rule="evenodd" d="M3.20417 3.68667H8.79583V4.71333H3.20417V3.68667Z" fill="#EFEFE5"/>
<path fill-rule="evenodd" clip-rule="evenodd" d="M3.20417 6.48667H5.5875V7.51333H3.20417V6.48667Z" fill="#EFEFE5"/>
</svg>
