<svg width="18" height="21" viewBox="0 0 18 21" fill="none" xmlns="http://www.w3.org/2000/svg">
<path d="M10.8423 17.1374V19.3601L8.97255 20.5L7.15774 19.3601V17.1374L8.97255 18.2773L10.8423 17.1374ZM0.833374 9.44343L2.64818 10.5833V14.4017L5.78283 16.3395V18.5622L0.833374 15.5416V9.44343ZM17.1117 9.44343V15.5416L12.1072 18.5622V16.3395L15.2418 14.4017V10.5833L17.1116 9.44343H17.1117ZM12.1072 6.42284L13.977 7.56269V9.78542L10.8423 11.7231V15.5986L9.02753 16.7384L7.21273 15.5986V11.7231L3.96802 9.78542V7.56269L5.83781 6.42284L8.97246 8.36056L12.1071 6.42284H12.1072ZM3.96802 11.3812L5.78283 12.5211V14.7438L3.96802 13.604V11.3812ZM13.977 11.3812V13.604L12.1622 14.7438V12.5211L13.977 11.3812ZM2.64818 4.48512L4.51797 5.62498L2.64818 6.76483V8.98756L0.833374 7.8477V5.62498L2.64818 4.48512ZM15.2969 4.48512L17.1667 5.62498V7.8477L15.2969 8.98756V6.76483L13.4821 5.62498L15.2969 4.48512ZM8.97255 4.48512L10.8423 5.62498L8.97255 6.76483L7.15774 5.62498L8.97255 4.48512ZM8.97255 0.666664L13.9771 3.68726L12.1623 4.82711L9.02762 2.88939L5.83799 4.82711L4.02318 3.68726L8.97255 0.666664Z" fill="#FEFFFB"/>
</svg>
