<svg width="10" height="10" viewBox="0 0 10 10" fill="none" xmlns="http://www.w3.org/2000/svg">
<path fill-rule="evenodd" clip-rule="evenodd" d="M4.59189 9.10507V5.82722H3.12134V5.0022H4.59189V3.80325C4.59189 3.07833 5.17956 2.49069 5.90446 2.49072L6.6399 2.49076L6.63986 3.31578L5.90442 3.31574C5.63517 3.31573 5.41689 3.534 5.41689 3.80325V5.0022H6.87866V5.82722H5.41689V9.10419C7.49928 8.8952 9.125 7.13745 9.125 5C9.125 2.72183 7.27817 0.875 5 0.875C2.72183 0.875 0.875 2.72183 0.875 5C0.875 7.14046 2.50529 8.90014 4.59189 9.10507ZM9.875 5C9.875 7.69239 7.69239 9.875 5 9.875C2.30761 9.875 0.125 7.69239 0.125 5C0.125 2.30761 2.30761 0.125 5 0.125C7.69239 0.125 9.875 2.30761 9.875 5Z" fill="#ffffff"/>
</svg>
