<svg width="12" height="13" viewBox="0 0 12 13" fill="none" xmlns="http://www.w3.org/2000/svg">
<path d="M8.66667 0C9.36959 0 9.94545 0.558232 9.99634 1.26629L10 1.36842V4.78947H11C11.5198 4.78947 11.947 5.19652 11.9954 5.71695L12 5.81579V10.9474C12 12.0405 11.1674 12.9341 10.1175 12.9965L10 13H1.33333C0.630425 13 0.0545566 12.4418 0.00365718 11.7337L0 11.6316V1.36842C0 0.647015 0.543918 0.0559923 1.23383 0.00375342L1.33333 0H8.66667ZM11 6H9.99634L10 11.6316C10.3682 11.6316 11 11.3253 11 10.9474V6ZM9 1H1V12H9V1Z" fill="#D9D9D9"/>
<path d="M2.5 3H7.5V4H2.5V3Z" fill="#D9D9D9"/>
<path d="M2.5 5.5H5.5V6.5H2.5V5.5Z" fill="#D9D9D9"/>
<path d="M2.5 8H6.5V9H2.5V8Z" fill="#D9D9D9"/>
</svg>
