<svg width="16" height="16" viewBox="0 0 16 16" fill="none" xmlns="http://www.w3.org/2000/svg">
<g clip-path="url(#clip0_37_9822)">
<path fill-rule="evenodd" clip-rule="evenodd" d="M11.4023 2.99758L11.4025 2.99779L12.9913 4.58077L12.9915 4.58098C13.0502 4.63935 13.0809 4.71304 13.0809 4.79659L13.0809 4.79831C13.0811 4.88085 13.0507 4.95476 12.9916 5.01391L12.9907 5.01482L11.9881 6.02126L9.97047 4.00174L10.9693 2.99808L10.9701 2.99719C11.0092 2.95785 11.0831 2.92018 11.1849 2.91998C11.2865 2.91978 11.3617 2.95716 11.4023 2.99758ZM9.32075 4.65245L8.52317 5.45079L8.25397 5.72025H7.87327H5.27829L2.96728 12.0816L3.11684 12.2313L6.3199 9.02516C6.29959 8.94916 6.28877 8.86928 6.28877 8.78687C6.28877 8.27878 6.70026 7.86689 7.20787 7.86689C7.71547 7.86689 8.12697 8.27878 8.12697 8.78687C8.12697 9.29496 7.71547 9.70685 7.20787 9.70685C7.12553 9.70685 7.04573 9.69601 6.9698 9.67569L3.76674 12.8818L3.91625 13.0314L10.2715 10.7182V8.12078V7.73971L10.5407 7.47025L11.3383 6.67191L9.32075 4.65245ZM11.1906 8.12078L12.5429 6.76718L13.6415 5.66443C13.8732 5.4326 14.0006 5.1241 14 4.79659C14 4.46846 13.8719 4.15996 13.6397 3.92874L12.0509 2.34576C11.5871 1.88332 10.7782 1.88516 10.3181 2.34883L9.22496 3.44728L7.87327 4.80027H5.06327C4.93755 4.80018 4.81487 4.83887 4.71191 4.91109C4.60896 4.9833 4.53074 5.08552 4.48791 5.20383L2.03698 11.9503C1.95548 12.1742 2.01124 12.4251 2.17913 12.5937L3.4046 13.8204C3.48698 13.903 3.59129 13.9604 3.70519 13.9856C3.81909 14.0108 3.93783 14.0028 4.04736 13.9626L10.7874 11.5094C10.9056 11.4665 11.0078 11.3882 11.0799 11.2852C11.152 11.1821 11.1907 11.0593 11.1906 10.9335V8.12078Z" fill="#EFEFE5"/>
</g>
<defs>
<clipPath id="clip0_37_9822">
<rect width="16" height="16" fill="white"/>
</clipPath>
</defs>
</svg>
