<svg width="472" height="289" viewBox="0 0 472 289" fill="none" xmlns="http://www.w3.org/2000/svg">
<g clip-path="url(#clip0_2085_15389)">
<g clip-path="url(#clip1_2085_15389)">
<path opacity="0.6" d="M49.1035 -126.975V355.058" stroke="#353539"/>
<path opacity="0.6" d="M112.031 -126.975V355.058" stroke="#353539"/>
<path opacity="0.6" d="M174.961 -126.975V355.058" stroke="#353539"/>
<path opacity="0.6" d="M237.889 -126.975V355.058" stroke="#353539"/>
<path opacity="0.6" d="M300.817 -126.975V355.058" stroke="#353539"/>
<path opacity="0.6" d="M363.746 -126.975V355.058" stroke="#353539"/>
<path opacity="0.6" d="M426.675 -126.975V355.058" stroke="#353539"/>
<path opacity="0.6" d="M-351.627 58.4302L2350.04 58.4302" stroke="#353539"/>
<path opacity="0.6" d="M-54.0986 122.223L528.62 122.223" stroke="#353539"/>
<path opacity="0.6" d="M-54.0986 185.151L528.62 185.151" stroke="#353539"/>
<path opacity="0.6" d="M-54.0986 248.08L528.62 248.08" stroke="#353539"/>
</g>
<path d="M472.5 58H430.711C428.018 58 425.439 59.0861 423.557 61.0126L366.443 119.487C364.561 121.414 361.982 122.5 359.289 122.5H50.5" stroke="#353539"/>
<path d="M221.5 312.5H179.711C177.018 312.5 174.439 311.414 172.557 309.487L115.443 251.013C113.561 249.086 110.982 248 108.289 248H-200.5" stroke="#353539"/>
<path d="M51 123C50.4477 123 50 122.552 50 122C50 121.448 50.4477 121 51 121L51 123ZM91 123L51 123L51 121L91 121L91 123Z" fill="url(#paint0_linear_2085_15389)"/>
<path d="M472.5 185L429.496 243.897C427.613 246.475 424.612 248 421.42 248H300.5" stroke="#353539"/>
<path d="M301 249C300.448 249 300 248.552 300 248C300 247.448 300.448 247 301 247L301 249ZM341 249L301 249L301 247L341 247L341 249Z" fill="url(#paint1_linear_2085_15389)"/>
<path d="M118.5 59.2448H113.375L113.375 58.4576L118.5 58.4576V59.2448ZM112.375 58.4576L112.375 59.2448L111.917 59.2448V58.4576H112.375ZM111.917 60.2448H112.375L112.375 65.5H111.917L111.917 60.2448ZM110.917 58.4576V59.2448H105.5L105.5 58.4576L110.917 58.4576ZM112.375 57.4576H111.917L111.917 52.5H112.375L112.375 57.4576Z" stroke="#353539"/>
<path d="M53.4231 189.769L49.7991 186.145L50.3557 185.589L53.9797 189.213L53.4231 189.769ZM49.6486 184.882L49.092 185.438L48.7679 185.114L49.3245 184.557L49.6486 184.882ZM48.0608 185.821L48.3849 186.145L44.6689 189.861L44.3448 189.537L48.0608 185.821ZM48.6174 183.85L48.0608 184.407L44.2307 180.577L44.7873 180.02L48.6174 183.85ZM50.3557 184.174L50.0316 183.85L53.5372 180.345L53.8613 180.669L50.3557 184.174Z" stroke="#353539"/>
<path d="M433.5 123.245H428.375L428.375 122.458L433.5 122.458V123.245ZM427.375 122.458L427.375 123.245L426.917 123.245V122.458H427.375ZM426.917 124.245H427.375L427.375 129.5H426.917L426.917 124.245ZM425.917 122.458V123.245H420.5L420.5 122.458L425.917 122.458ZM427.375 121.458H426.917L426.917 116.5H427.375L427.375 121.458Z" stroke="#353539"/>
</g>
<defs>
<linearGradient id="paint0_linear_2085_15389" x1="83.27" y1="122.332" x2="51.5561" y2="122.332" gradientUnits="userSpaceOnUse">
<stop offset="0.228413" stop-color="#FF693A" stop-opacity="0"/>
<stop offset="0.478421" stop-color="#FFEA2F" stop-opacity="0.397904"/>
<stop offset="0.707595" stop-color="#4CBFFF"/>
<stop offset="1" stop-color="#5D4FFF"/>
</linearGradient>
<linearGradient id="paint1_linear_2085_15389" x1="333.27" y1="248.332" x2="301.556" y2="248.332" gradientUnits="userSpaceOnUse">
<stop offset="0.228413" stop-color="#FF693A" stop-opacity="0"/>
<stop offset="0.478421" stop-color="#FFEA2F" stop-opacity="0.397904"/>
<stop offset="0.707595" stop-color="#4CBFFF"/>
<stop offset="1" stop-color="#5D4FFF"/>
</linearGradient>
<clipPath id="clip0_2085_15389">
<rect width="472" height="289" fill="white"/>
</clipPath>
<clipPath id="clip1_2085_15389">
<rect width="576" height="363" fill="white" transform="translate(-51)"/>
</clipPath>
</defs>
</svg>
