<svg width="314" height="193" viewBox="0 0 314 193" fill="none" xmlns="http://www.w3.org/2000/svg">
<g clip-path="url(#clip0_2085_15571)">
<mask id="path-1-inside-1_2085_15571" fill="white">
<path d="M0 0H314V192.258H0V0Z"/>
</mask>
<path opacity="0.6" d="M-263.59 -80.6172V445.055M-221.648 -80.6172V445.055M-179.706 -80.6172V445.055M-136.832 -80.6172V445.055M-94.8899 -80.6172V445.055M-52.0167 -80.6172V445.055M-9.19749 -84.4704V236.204M32.6661 -84.4704V236.204M74.5291 -84.4704V236.204M116.393 -84.4704V236.204M158.256 -84.4704V236.204M200.12 -84.4704V236.204M241.983 -84.4704V236.204M283.847 -84.4704V236.204M325.711 -84.4704V236.204M371.13 -80.6172V445.055M413.073 -80.6172V445.055M455.015 -80.6172V445.055M497.889 -80.6172V445.055M539.831 -80.6172V445.055M582.705 -80.6172V445.055M624.648 -80.6172V445.055M666.589 -80.6172V445.055M709.462 -80.6172V445.055M751.405 -80.6172V445.055M794.278 -80.6172V445.055M836.221 -80.6172V445.055M878.163 -80.6172V445.055M921.037 -80.6172V445.055M962.978 -80.6172V445.055M1005.85 -80.6172V445.055M1047.79 -80.6172V445.055M1089.74 -80.6172V445.055M1132.5 -80.6172V318.297M1174.82 -80.6172V318.297M1217.14 -80.6172V318.297M1259.46 -80.6172V318.297M1301.78 -80.6172V318.297M1344.1 -80.6172V318.297M1386.42 -80.6172V318.297M1428.73 -80.6172V318.297M1471.05 -80.6172V318.297M-233.922 -40.7878H1563.37M-233.922 -0.9589H1563.37M-233.922 38.8709H1563.37M-35.9896 81.3091H351.667M-35.9896 123.173H351.667M-35.9896 165.036H351.667M-35.9896 206.9H351.667M-233.922 238.016H1563.37M-233.922 277.846H1563.37M-233.922 317.675H1563.37M-233.922 357.443H1563.37M-233.922 397.211H1563.37" stroke="url(#paint0_linear_2085_15571)"/>
<path d="M78.8327 39.4129H75.4233L75.4233 38.8892H78.8327V39.4129ZM74.758 38.8892L74.758 39.4129L74.4531 39.4129V38.8892H74.758ZM74.4531 40.0781L74.758 40.0781V43.5742H74.4531L74.4531 40.0781ZM73.7878 38.8892V39.4129H70.1844V38.8892H73.7878ZM74.758 38.2239L74.4531 38.2239L74.4531 34.9258L74.758 34.9258V38.2239Z" stroke="#353539" stroke-width="0.665254"/>
<path d="M35.5399 126.245L33.129 123.834L33.4993 123.464L35.9102 125.875L35.5399 126.245ZM33.0289 122.993L32.6586 123.364L32.443 123.148L32.8133 122.778L33.0289 122.993ZM31.9726 123.618L32.1882 123.834L29.7161 126.306L29.5005 126.09L31.9726 123.618ZM32.3429 122.307L31.9726 122.678L29.4246 120.13L29.7949 119.759L32.3429 122.307ZM33.4993 122.523L33.2837 122.307L35.6158 119.975L35.8314 120.191L33.4993 122.523Z" stroke="#353539" stroke-width="0.665254"/>
<path d="M288.388 81.9891H284.979L284.979 81.4654H288.388V81.9891ZM284.313 81.4654L284.313 81.9891L284.009 81.9891V81.4654H284.313ZM284.009 82.6544L284.313 82.6544V86.1504H284.009L284.009 82.6544ZM283.343 81.4654V81.9891H279.74V81.4654H283.343ZM284.313 80.8001L284.009 80.8001L284.009 77.5021L284.313 77.5021V80.8001Z" stroke="#353539" stroke-width="0.665254"/>
</g>
<defs>
<linearGradient id="paint0_linear_2085_15571" x1="-1.99999" y1="102.5" x2="317" y2="106" gradientUnits="userSpaceOnUse">
<stop stop-color="#353539" stop-opacity="0.56"/>
<stop offset="0.215083" stop-color="#353539"/>
<stop offset="0.770124" stop-color="#353539"/>
<stop offset="1" stop-color="#353539" stop-opacity="0.56"/>
</linearGradient>
<clipPath id="clip0_2085_15571">
<path d="M0 0H314V192.258H0V0Z" fill="white"/>
</clipPath>
</defs>
</svg>
