<svg width="16" height="16" viewBox="0 0 16 16" fill="none" xmlns="http://www.w3.org/2000/svg">
<g clip-path="url(#clip0_2428_10840)">
<path d="M12 10.7785C12 7.93846 9.69793 7.61477 7.84836 7.35508C5.83252 7.072 4.69184 6.82585 4.69184 5.072C4.69184 3.6 6.21864 3.07692 7.52619 3.07692C8.1778 3.05565 8.82508 3.1912 9.41467 3.47238C10.0042 3.75356 10.5192 4.17233 10.9172 4.69415L11.8648 3.92123C11.4386 3.36749 10.9084 2.90432 10.3045 2.55834C9.7006 2.21237 9.03499 1.99041 8.34592 1.90523V0H7.12789V1.85969C4.92631 1.99508 3.47381 3.25046 3.47381 5.072C3.47381 7.98277 5.80633 8.31077 7.68088 8.57354C9.66139 8.85231 10.782 9.09169 10.782 10.7785C10.782 12.6443 8.87393 12.9231 7.73691 12.9231C5.64799 12.9231 4.76614 12.3298 3.94762 11.3058L3 12.0788C3.4828 12.7217 4.10725 13.242 4.82379 13.5984C5.54033 13.9549 6.32924 14.1377 7.12789 14.1323V16H8.34592V14.1262C10.6151 13.9391 12 12.6942 12 10.7785Z" fill="#EFEFE5"/>
</g>
<defs>
<clipPath id="clip0_2428_10840">
<rect width="16" height="16" fill="white"/>
</clipPath>
</defs>
</svg>
