<svg width="16" height="16" viewBox="0 0 16 16" fill="none" xmlns="http://www.w3.org/2000/svg">
<g>
<path d="M8 6.31055C12.0036 6.31055 14.4815 7.68882 14.4815 8.96572C14.4815 10.2426 12.0036 11.6209 8 11.6209C3.99639 11.6209 1.51852 10.2426 1.51852 8.96572C1.51852 7.68882 3.99639 6.31055 8 6.31055ZM7.74074 12.1037V14.5174C6.31481 14.4963 5.08722 14.2972 4.11111 13.9918V11.5998C5.16306 11.9075 6.40815 12.0807 7.74074 12.1037ZM8.25926 12.1037C9.59185 12.0837 10.8369 11.9105 11.8889 11.6028V13.9918C10.9128 14.2972 9.68843 14.4963 8.25926 14.5174V12.1037ZM1.51852 11.8623V10.1678C1.85231 10.5413 2.33972 10.8853 2.95806 11.1731C3.15769 11.2661 3.37028 11.3512 3.59259 11.4314V13.8078C2.26324 13.2906 1.51852 12.5617 1.51852 11.8623ZM14.4815 11.8623C14.4815 12.5617 13.7368 13.2906 12.4074 13.8078V11.4314C12.6297 11.3512 12.8423 11.2661 13.0419 11.1731C13.6603 10.8853 14.1477 10.5413 14.4815 10.1678V11.8623Z" fill="#09090E"/>
<path d="M13.0419 6.75864C11.7528 6.15881 9.96194 5.82812 8 5.82812C6.03806 5.82812 4.24722 6.15881 2.95806 6.75864C1.71296 7.33675 1 8.14235 1 8.96606V11.8626C1 12.6863 1.71296 13.4919 2.95806 14.07C4.24722 14.6698 6.03806 15.0005 8 15.0005C9.96194 15.0005 11.7528 14.6698 13.0419 14.07C14.287 13.4919 15 12.6863 15 11.8626V8.96606C15 8.14235 14.287 7.33675 13.0419 6.75864ZM8 6.31088C12.0036 6.31088 14.4815 7.68916 14.4815 8.96606C14.4815 10.243 12.0036 11.6212 8 11.6212C3.99639 11.6212 1.51852 10.243 1.51852 8.96606C1.51852 7.68916 3.99639 6.31088 8 6.31088ZM7.74074 12.104V14.5178C6.31481 14.4967 5.08722 14.2975 4.11111 13.9922V11.6001C5.16306 11.9079 6.40815 12.0811 7.74074 12.104ZM8.25926 12.104C9.59185 12.0841 10.8369 11.9109 11.8889 11.6031V13.9922C10.9128 14.2975 9.68843 14.4967 8.25926 14.5178V12.104ZM1.51852 11.8626V10.1681C1.85231 10.5417 2.33972 10.8856 2.95806 11.1735C3.15769 11.2664 3.37028 11.3515 3.59259 11.4317V13.8081C2.26324 13.291 1.51852 12.562 1.51852 11.8626ZM14.4815 11.8626C14.4815 12.562 13.7368 13.291 12.4074 13.8081V11.4317C12.6297 11.3515 12.8423 11.2664 13.0419 11.1735C13.6603 10.8856 14.1477 10.5417 14.4815 10.1681V11.8626Z" fill="#EFEFE5" stroke="#EFEFE5" stroke-width="0.3"/>
<path d="M8 1.48242C12.0036 1.48242 14.4815 2.8607 14.4815 4.13759C14.4815 5.41449 12.0036 6.79277 8 6.79277C3.99639 6.79277 1.51852 5.41449 1.51852 4.13759C1.51852 2.8607 3.99639 1.48242 8 1.48242ZM7.74074 7.27553V9.68932C6.31481 9.6682 5.08722 9.46906 4.11111 9.16371V6.77165C5.16306 7.0794 6.40815 7.25259 7.74074 7.27553ZM8.25926 7.27553C9.59185 7.25561 10.8369 7.08242 11.8889 6.77466V9.16371C10.9128 9.46906 9.68843 9.6682 8.25926 9.68932V7.27553ZM1.51852 7.03415V5.33966C1.85231 5.7132 2.33972 6.05716 2.95806 6.34501C3.15769 6.43794 3.37028 6.52303 3.59259 6.60328V8.97966C2.26324 8.46251 1.51852 7.73354 1.51852 7.03415ZM14.4815 7.03415C14.4815 7.73354 13.7368 8.46251 12.4074 8.97966V6.60328C12.6297 6.52303 12.8423 6.43794 13.0419 6.34501C13.6603 6.05716 14.1477 5.7132 14.4815 5.33966V7.03415Z" fill="#09090E"/>
<path d="M13.0419 1.93052C11.7528 1.33069 9.96194 1 8 1C6.03806 1 4.24722 1.33069 2.95806 1.93052C1.71296 2.50862 1 3.31422 1 4.13793V7.03448C1 7.85819 1.71296 8.66379 2.95806 9.2419C4.24722 9.84172 6.03806 10.1724 8 10.1724C9.96194 10.1724 11.7528 9.84172 13.0419 9.2419C14.287 8.66379 15 7.85819 15 7.03448V4.13793C15 3.31422 14.287 2.50862 13.0419 1.93052ZM8 1.48276C12.0036 1.48276 14.4815 2.86103 14.4815 4.13793C14.4815 5.41483 12.0036 6.7931 8 6.7931C3.99639 6.7931 1.51852 5.41483 1.51852 4.13793C1.51852 2.86103 3.99639 1.48276 8 1.48276ZM7.74074 7.27586V9.68966C6.31481 9.66853 5.08722 9.4694 4.11111 9.16405V6.77198C5.16306 7.07974 6.40815 7.25293 7.74074 7.27586ZM8.25926 7.27586C9.59185 7.25595 10.8369 7.08276 11.8889 6.775V9.16405C10.9128 9.4694 9.68843 9.66853 8.25926 9.68966V7.27586ZM1.51852 7.03448V5.34C1.85231 5.71353 2.33972 6.0575 2.95806 6.34535C3.15769 6.43828 3.37028 6.52336 3.59259 6.60362V8.98C2.26324 8.46284 1.51852 7.73388 1.51852 7.03448ZM14.4815 7.03448C14.4815 7.73388 13.7368 8.46284 12.4074 8.98V6.60362C12.6297 6.52336 12.8423 6.43828 13.0419 6.34535C13.6603 6.0575 14.1477 5.71353 14.4815 5.34V7.03448Z" fill="#EFEFE5" stroke="#EFEFE5" stroke-width="0.3"/>
<ellipse cx="5.92571" cy="4.13803" rx="1.03704" ry="0.482759" fill="#D9D9D9"/>
<ellipse cx="10.0741" cy="4.13803" rx="1.03704" ry="0.482759" fill="#D9D9D9"/>
</g>
</svg>
