<svg width="16" height="16" viewBox="0 0 16 16" fill="none" xmlns="http://www.w3.org/2000/svg">
<g>
<path d="M10.085 9.5L8.79 10.795L9.5 11.5L11.5 9.5L9.5 7.5L8.79 8.205L10.085 9.5ZM5.915 9.5L7.21 8.205L6.5 7.5L4.5 9.5L6.5 11.5L7.21 10.795L5.915 9.5Z" fill="#EFEFE5"/>
<path d="M4.5 4.5C4.77614 4.5 5 4.27614 5 4C5 3.72386 4.77614 3.5 4.5 3.5C4.22386 3.5 4 3.72386 4 4C4 4.27614 4.22386 4.5 4.5 4.5Z" fill="#EFEFE5"/>
<path d="M3 4.5C3.27614 4.5 3.5 4.27614 3.5 4C3.5 3.72386 3.27614 3.5 3 3.5C2.72386 3.5 2.5 3.72386 2.5 4C2.5 4.27614 2.72386 4.5 3 4.5Z" fill="#EFEFE5"/>
<path d="M14 2H2C1.4485 2 1 2.449 1 3V13C1 13.5515 1.4485 14 2 14H14C14.5515 14 15 13.5515 15 13V3C15 2.449 14.5515 2 14 2ZM14 3V5H2V3H14ZM2 13V6H14V13H2Z" fill="#EFEFE5"/>
</g>
</svg>
