<svg width="16" height="16" viewBox="0 0 16 16" fill="none" xmlns="http://www.w3.org/2000/svg">
<g>
<path d="M13.5 14V8H9.5V14H7.5V6H3.5V14H2V1H1V14C1 14.2652 1.10536 14.5196 1.29289 14.7071C1.48043 14.8946 1.73478 15 2 15H15V14H13.5ZM6.5 7V10H4.5V7H6.5ZM12.5 9V12H10.5V9H12.5Z" fill="#EFEFE5"/>
<path d="M11.3929 7.00033C11.1806 7.00063 10.9739 6.933 10.8029 6.80733L5.60236 2.99383L4.12086 5.00033L3.31836 4.40333L4.80936 2.40333C4.96439 2.1946 5.1947 2.05454 5.45135 2.0129C5.70801 1.97126 5.97078 2.03132 6.18386 2.18033L11.3944 6.00033L13.1969 3.57033L13.9999 4.16533L12.1979 6.59633C12.1046 6.72191 11.9832 6.82388 11.8434 6.89404C11.7036 6.9642 11.5493 7.00061 11.3929 7.00033Z" fill="#EFEFE5"/>
</g>
</svg>
